<svg width="0" height="0" class="hidden">
  <symbol xmlns="http://www.w3.org/2000/svg" viewBox="0 -120 512.00201 512" id="vk">
    <path d="m409.898438 153.902344 101.796874-153.902344h-156.117187l-2.914063 11.292969c-7.480468 28.992187-21.519531 68.285156-45.914062 90.839843-3.015625 2.785157-5.871094 5.023438-8.5 6.816407v-108.949219h-135.972656v30.101562h12.703125v68.222657c-15.242188-13.40625-34.394531-38.988281-39.410157-84.90625l-1.464843-13.417969h-134.105469l4.605469 18.65625c16.558593 67.09375 41.398437 122.058594 73.835937 163.367188 26.480469 33.726562 58.019532 58.488281 93.738282 73.59375 31.898437 13.492187 61.269531 16.800781 82.402343 16.800781 19.4375 0 31.902344-2.800781 32.949219-3.042969l11.464844-2.671875.59375-41.351563 51.058594 44.417969h161.355468zm-139.484376 6.175781-1.164062 81.546875c-16.808594 1.496094-50.109375 1.554688-86.859375-14.378906-30.691406-13.308594-57.953125-35.101563-81.027344-64.777344-26.425781-33.984375-47.449219-78.449219-62.613281-132.367188h68.777344c14.886718 86.335938 74.78125 108.675782 77.449218 109.625l20.105469 7.171876v-116.796876h63.070313v116.945313l15.835937-.828125c1.925781-.101562 19.414063-1.496094 40.066407-19.195312 23.464843-20.113282 41.828124-52.683594 54.664062-96.921876h76.976562l-83.617187 126.410157 73.277344 83.152343h-83.449219zm0 0"></path>
  </symbol>
  <symbol version="1.1" id="gmail" xmlns="http://www.w3.org/2000/svg"  xmlns:xlink="http://www.w3.org/1999/xlink" x="0px" y="0px" xml:space="preserve" viewBox="0 0 512 512">
    <g>
      <g>
        <path d="M486.279,80.51L256,309.789L25.721,80.51C16.437,84.952,8.952,92.437,4.51,101.721l219.674,218.674
			c16.963,16.963,46.685,16.963,63.618,0L507.49,101.719C503.048,92.436,495.563,84.952,486.279,80.51z"></path>
      </g>
    </g>
    <g>
      <g>
        <polygon points="63.633,76 256,267.367 448.367,76 		"></polygon>
      </g>
    </g>
    <g>
      <g>
        <path d="M0,139.635V391c0,19.53,12.578,36.024,30,42.237V169.635L0,139.635z"></path>
      </g>
    </g>
    <g>
      <g>
        <path d="M422,229.633L310.027,341.605c-14.135,14.151-33.959,21.944-54.027,21.944s-38.892-7.793-53.042-21.943L90,229.638
			l-30-30.002V436c143.19,0,248.741,0,392,0V199.633L422,229.633z"></path>
      </g>
    </g>
    <g>
      <g>
        <path d="M482,169.633v263.604c17.422-6.213,30-22.707,30-42.237V139.633L482,169.633z"></path>
      </g>
    </g>
    <g></g>
    <g></g>
    <g></g>
    <g></g>
    <g></g>
    <g></g>
    <g></g>
    <g></g>
    <g></g>
    <g></g>
    <g></g>
    <g></g>
    <g></g>
    <g></g>
    <g></g>
  </symbol>
  <symbol xmlns="http://www.w3.org/2000/svg" viewBox="0 0 512 512" id="github">
    <path d="m256 0c-140.609375 0-256 115.390625-256 256 0 119.988281 84.195312 228.984375 196 256v-84.695312c-11.078125 2.425781-21.273438 2.496093-32.550781-.828126-15.128907-4.464843-27.421875-14.542968-36.546875-29.910156-5.816406-9.8125-16.125-20.453125-26.878906-19.671875l-2.636719-29.882812c23.253906-1.992188 43.371093 14.167969 55.3125 34.230469 5.304687 8.921874 11.410156 14.152343 19.246093 16.464843 7.574219 2.230469 15.707032 1.160157 25.183594-2.1875 2.378906-18.972656 11.070313-26.074219 17.636719-36.074219v-.015624c-66.679687-9.945313-93.253906-45.320313-103.800781-73.242188-13.976563-37.074219-6.476563-83.390625 18.238281-112.660156.480469-.570313 1.347656-2.0625 1.011719-3.105469-11.332032-34.230469 2.476562-62.546875 2.984375-65.550781 13.078125 3.867187 15.203125-3.890625 56.808593 21.386718l7.191407 4.320313c3.007812 1.792969 2.0625.769531 5.070312.542969 17.371094-4.71875 35.683594-7.324219 53.726563-7.558594 18.179687.234375 36.375 2.839844 54.464844 7.75l2.328124.234375c-.203124-.03125.632813-.148437 2.035157-.984375 51.972656-31.480469 50.105469-21.191406 64.042969-25.722656.503906 3.007812 14.128906 31.785156 2.917968 65.582031-1.511718 4.65625 45.058594 47.300781 19.246094 115.753906-10.546875 27.933594-37.117188 63.308594-103.796875 73.253907v.015624c8.546875 13.027344 18.816406 19.957032 18.761719 46.832032v105.722656c111.808594-27.015625 196-136.011719 196-256 .003906-140.609375-115.386719-256-255.996094-256zm0 0"></path>
  </symbol>
</svg>
<svg width="0" height="0" class="hidden">
  <symbol id="arrow_up" version="1.1" xml:space="preserve" xmlns="http://www.w3.org/2000/svg" xmlns:xlink="http://www.w3.org/1999/xlink" viewBox="0 0 512 512">
    <path d="M413.1,327.3l-1.8-2.1l-136-156.5c-4.6-5.3-11.5-8.6-19.2-8.6c-7.7,0-14.6,3.4-19.2,8.6L101,324.9l-2.3,2.6  C97,330,96,333,96,336.2c0,8.7,7.4,15.8,16.6,15.8v0h286.8v0c9.2,0,16.6-7.1,16.6-15.8C416,332.9,414.9,329.8,413.1,327.3z"></path>
  </symbol>
</svg>